<svg width="124" height="65" viewBox="0 0 124 65" fill="none" xmlns="http://www.w3.org/2000/svg">
<g clip-path="url(#clip0)">
<path d="M117.748 37.3227C117.956 37.3227 118.165 37.3227 118.582 37.3227C118.79 37.3227 118.998 37.3227 119.207 37.3227C119.415 37.3227 119.624 37.3227 119.832 37.3227C120.041 37.3227 120.457 37.3227 120.666 37.3227V27.8872C120.666 27.6775 120.666 27.4678 120.666 27.2582C120.666 27.0485 120.666 26.8388 120.666 26.6291V25.3711H117.748V26.6291C117.748 26.8388 117.748 27.0485 117.748 27.2582C117.748 27.4678 117.748 27.6775 117.748 27.8872V37.3227ZM116.498 26.6291C116.706 26.6291 116.914 26.6291 117.123 26.6291C117.331 26.6291 117.54 26.6291 117.748 26.6291H120.666C120.874 26.6291 121.083 26.6291 121.291 26.6291C121.499 26.6291 121.708 26.6291 121.916 26.6291H122.541C123.167 26.6291 123.375 26.6291 123.792 26.4195C124 26.2098 124.209 25.7904 124.209 25.3711C124.209 25.1614 124.209 24.9517 124.209 24.742C124.209 24.5324 124.209 24.3227 124 24.113H114.622C114.622 24.3227 114.622 24.5324 114.622 24.742C114.622 24.9517 114.622 25.1614 114.622 25.3711C114.622 25.5807 114.622 25.7904 114.622 26.0001C114.622 26.2098 114.622 26.4195 114.622 26.6291H116.498ZM112.746 24.113H111.704C111.079 24.113 110.662 24.3227 110.454 24.5324C110.246 24.742 110.037 25.1614 110.037 26.0001V28.7259C110.037 29.1453 110.037 29.7743 110.037 30.4033C110.037 31.0324 110.037 31.6614 110.037 32.5001C110.037 33.1291 110.037 33.7582 110.246 34.3872H110.037L109.204 37.5324C109.62 37.5324 109.829 37.5324 110.246 37.5324C110.454 37.5324 110.871 37.5324 111.079 37.5324C111.288 37.5324 111.496 37.5324 111.913 37.5324C112.33 37.5324 112.538 37.5324 112.746 37.3227V24.113ZM109.412 37.3227L111.913 35.6453L110.454 33.9678C110.246 33.5485 110.037 33.1291 109.829 32.7098C109.62 32.2904 109.412 31.6614 109.204 31.0324L106.077 23.9033L103.785 25.7904L105.244 27.4678C105.452 27.8872 105.452 28.3065 105.661 28.7259C105.869 29.1453 106.077 29.7743 106.286 30.1936L109.412 37.3227ZM102.535 37.3227C102.743 37.3227 102.951 37.3227 103.368 37.3227C103.577 37.3227 103.785 37.3227 103.993 37.3227C104.202 37.3227 104.41 37.3227 104.619 37.3227C104.827 37.3227 105.035 37.3227 105.244 37.3227V33.1291C105.244 32.5001 105.244 32.0807 105.244 31.242C105.244 30.613 105.244 29.984 105.244 29.1453C105.244 28.5162 105.244 27.8872 105.035 27.2582H105.244L106.077 23.9033C105.661 23.9033 105.452 23.9033 105.035 23.9033C104.619 23.9033 104.41 23.9033 104.202 23.9033C103.993 23.9033 103.785 23.9033 103.368 23.9033C102.951 23.9033 102.743 23.9033 102.535 24.113V37.3227ZM96.0741 34.5969C96.0741 34.5969 96.2825 34.5969 96.4909 34.5969C96.6993 34.5969 96.6993 34.5969 96.9077 34.5969C97.1161 34.5969 97.1161 34.5969 97.3245 34.5969H98.7834L97.9497 32.2904H96.4909C96.4909 32.2904 96.2825 32.2904 96.0741 32.2904C95.8657 32.2904 95.8657 32.2904 95.6573 32.2904C95.4489 32.2904 95.4489 32.2904 95.2405 32.2904H93.7817C93.7817 32.2904 93.5733 32.2904 93.3649 32.2904C93.1565 32.2904 93.1565 32.2904 92.9481 32.2904C92.7397 32.2904 92.7397 32.2904 92.7397 32.2904H91.6976L90.864 34.5969H92.3229C92.3229 34.5969 92.5313 34.5969 92.7397 34.5969C92.9481 34.5969 92.9481 34.5969 93.1565 34.5969C93.3649 34.5969 93.3649 34.5969 93.5733 34.5969H96.0741ZM88.9884 37.113C89.1968 37.3227 89.4052 37.3227 89.822 37.3227C90.0304 37.3227 90.4472 37.3227 90.6556 37.3227C90.864 37.3227 91.0724 37.3227 91.2808 37.3227C91.4892 37.3227 91.6976 37.3227 91.906 37.3227L93.9901 30.4033C93.9901 29.984 94.1985 29.7743 94.4069 29.3549C94.6153 28.9356 94.6153 28.5162 94.8237 28.0969C94.8237 27.6775 95.0321 27.2582 95.0321 26.8388H95.2405C95.4489 27.4678 95.6573 28.0969 95.8657 28.9356C96.0741 29.5646 96.2825 30.1936 96.4909 30.8227L97.9497 36.0646C98.1581 36.6936 98.3666 37.113 98.575 37.3227C98.7834 37.5324 99.2002 37.742 99.617 37.742C99.8254 37.742 100.242 37.742 100.451 37.742C100.867 37.742 101.076 37.5324 101.284 37.5324L97.1161 24.5324C96.9077 24.5324 96.6993 24.5324 96.2825 24.5324C95.8657 24.5324 95.6573 24.5324 95.4489 24.5324C95.2405 24.5324 94.8237 24.5324 94.6153 24.5324C94.1985 24.5324 93.9901 24.5324 93.7817 24.5324L88.9884 37.113ZM87.738 24.113C87.5296 24.113 87.3212 24.113 86.9044 24.113C86.696 24.113 86.2792 24.113 86.2792 24.113C86.0708 24.113 85.8623 24.113 85.6539 24.113C85.4455 24.113 85.2371 24.113 84.8203 24.113V32.5001C84.8203 33.3388 84.6119 34.1775 84.4035 34.5969C83.9867 35.0162 83.5699 35.2259 82.7363 35.2259C81.9027 35.2259 81.2775 35.0162 81.0691 34.5969C80.6523 34.1775 80.6523 33.5485 80.6523 32.5001V25.7904C80.6523 25.1614 80.4439 24.742 80.2355 24.3227C80.0271 24.113 79.6103 23.9033 78.985 23.9033H77.943L77.7346 24.113V32.5001C77.7346 33.5485 77.943 34.5969 78.3598 35.2259C78.7766 36.0646 79.4019 36.484 80.0271 36.9033C80.8607 37.3227 81.6943 37.5324 82.7363 37.5324C83.7783 37.5324 84.8203 37.3227 85.4455 36.9033C86.2792 36.484 86.9044 35.8549 87.1128 35.2259C87.5296 34.3872 87.738 33.5485 87.738 32.5001V24.113Z" fill="white"/>
<path d="M13.5461 3.98379L30.01 23.2741L41.0554 16.7741C41.0554 16.7741 27.7176 -1.04847 24.1747 0.209598C20.8403 1.46766 13.5461 3.98379 13.5461 3.98379Z" fill="white"/>
<path d="M41.4722 16.7742C41.4722 16.7742 43.973 12.371 45.2234 6.5C45.2234 6.5 57.7276 11.5323 52.9343 24.1129L41.4722 16.7742Z" fill="white"/>
<path d="M52.9343 24.1131L53.9763 37.3228L58.7696 36.6938C58.7696 36.6938 60.02 36.2744 59.8116 33.968C59.6032 31.4519 59.1864 26.2099 59.1864 26.2099C59.1864 26.2099 59.3948 24.9518 56.4772 24.5325C52.9343 23.9035 52.9343 24.1131 52.9343 24.1131Z" fill="white"/>
<path d="M53.9767 37.3228L44.3901 45.0808L48.7666 53.6776C48.7666 53.6776 49.8086 57.0324 52.9347 53.2582C55.8523 49.484 57.1027 48.855 56.8943 46.5486C56.6859 44.2421 56.0607 38.7905 53.9767 37.3228Z" fill="white"/>
<path d="M44.1816 45.0804L31.0522 39.2095L19.59 62.4837C19.59 62.4837 18.7564 64.1611 21.674 64.3708C24.5916 64.7901 29.3849 65.8385 31.8858 63.3224C34.3866 61.0159 44.1816 45.0804 44.1816 45.0804Z" fill="white"/>
<path d="M31.0523 39L29.8019 23.4839L1.45903 25.371C1.45903 25.371 -0.208198 25.5807 0.000205753 28.7258C0.208609 32.9194 0.625416 37.5323 0.625416 37.5323C0.625416 37.5323 0.417013 39.4194 4.16827 39.629C7.91953 39.8387 30.6355 39.8387 31.0523 39Z" fill="white"/>
<path d="M75.442 30.613C75.442 29.5646 75.2336 28.7259 75.0252 27.8872C74.8168 27.0485 74.4 26.4195 73.9832 25.7904C73.5664 25.1614 72.9412 24.742 72.316 24.3227C71.6908 23.9033 70.8571 23.9033 69.8151 23.9033C68.5647 23.9033 67.5227 24.113 66.6891 24.742C65.8555 25.3711 65.2303 26.2098 64.8134 27.0485C64.3966 28.0969 64.1882 29.3549 64.1882 30.613C64.1882 31.6614 64.3966 32.5001 64.605 33.3388C64.8134 34.1775 65.2303 34.8065 65.6471 35.4356C66.0639 36.0646 66.6891 36.484 67.3143 36.9033C67.9395 37.3227 68.7731 37.3227 69.8151 37.3227C70.0235 37.3227 70.2319 37.3227 70.6487 37.3227C70.2319 36.6936 69.6067 35.8549 69.1899 35.0162C68.9815 35.0162 68.7731 34.8066 68.5647 34.5969C68.1479 34.3872 67.9395 33.9678 67.7311 33.5485C67.5227 33.1291 67.5227 32.5001 67.3143 32.0807C67.3143 31.4517 67.3143 31.0324 67.3143 30.4033C67.3143 29.984 67.3143 29.3549 67.3143 28.7259C67.3143 28.0969 67.5227 27.6775 67.7311 27.2582C67.9395 26.8388 68.1479 26.4195 68.5647 26.2098C68.9815 26.0001 69.3983 25.7904 70.0235 25.7904C70.6487 25.7904 71.0655 26.0001 71.4823 26.2098C71.8992 26.4195 72.1076 26.8388 72.316 27.2582C72.5244 27.6775 72.5244 28.3065 72.7328 28.7259C72.7328 29.3549 72.7328 29.7743 72.7328 30.4033C72.7328 30.8227 72.7328 31.4517 72.7328 32.0807L74.4 35.6453C74.8168 35.2259 75.0252 34.8065 75.2336 34.1775C75.2336 33.3388 75.442 32.0807 75.442 30.613Z" fill="white"/>
<path d="M69.0088 33.1289L71.9264 31.6611L74.4273 37.1127C74.4273 37.1127 74.6357 37.5321 74.0105 37.5321C73.3853 37.5321 72.3432 37.9515 71.718 37.3224C71.0928 36.9031 69.0088 33.1289 69.0088 33.1289Z" fill="white"/>
</g>
<defs>
<clipPath id="clip0">
<rect width="124" height="65" fill="white"/>
</clipPath>
</defs>
</svg>
